<svg width="26" height="16" viewBox="0 0 26 16" fill="none" xmlns="http://www.w3.org/2000/svg">
<path d="M3.03709 0.96291C2.46432 0.390141 1.53568 0.390141 0.96291 0.96291C0.390141 1.53568 0.390141 2.46432 0.96291 3.03709L3.03709 0.96291ZM13 13L11.9629 14.0371L13 15.0742L14.0371 14.0371L13 13ZM25.0371 3.03709C25.6099 2.46432 25.6099 1.53568 25.0371 0.96291C24.4643 0.390141 23.5357 0.390141 22.9629 0.96291L25.0371 3.03709ZM0.96291 3.03709L11.9629 14.0371L14.0371 11.9629L3.03709 0.96291L0.96291 3.03709ZM14.0371 14.0371L25.0371 3.03709L22.9629 0.96291L11.9629 11.9629L14.0371 14.0371Z" fill="black"/>
</svg>
